<svg width="119" height="119" viewBox="0 0 119 119" fill="none" xmlns="http://www.w3.org/2000/svg">
<path d="M111.646 114.989H108.303V10.0281C108.303 8.92012 107.405 8.02251 106.298 8.02251H68.8595C67.7518 8.02251 66.854 8.92012 66.854 10.0281V18.719H62.8428V10.0281C62.8428 8.92012 61.9447 8.02251 60.8372 8.02251H52.1461V2.00557C52.1461 0.897613 51.248 0 50.1405 0C49.033 0 48.1349 0.897613 48.1349 2.00557V8.02251H39.444C38.3363 8.02251 37.4384 8.92012 37.4384 10.0281V18.719H31.4215C30.3137 18.719 29.4159 19.6166 29.4159 20.7246V37.4381H12.7024C11.5947 37.4381 10.6969 38.3357 10.6969 39.4436V114.989H7.35372C6.246 114.989 5.34815 115.886 5.34815 116.994C5.34815 118.102 6.24623 119 7.35372 119H111.646C112.754 119 113.652 118.102 113.652 116.994C113.652 115.886 112.754 114.989 111.646 114.989ZM41.4493 12.0336H58.8312V18.719H41.4493V12.0336ZM34.7639 114.989H33.4268V111.646C33.4268 110.538 32.5287 109.641 31.4212 109.641C30.3137 109.641 29.4157 110.538 29.4157 111.646V114.989H28.0785V108.303H34.7639V114.989ZM48.1347 63.5111V66.9614V114.989H38.7751V106.298C38.7751 105.19 37.877 104.292 36.7695 104.292H26.073C24.9653 104.292 24.0674 105.19 24.0674 106.298V114.989H14.7078V41.4494H48.1347V63.5111ZM50.1403 37.4383H33.4268V22.7304H66.8537V61.5056H52.1461V54.8202H58.163C59.2707 54.8202 60.1686 53.9226 60.1686 52.8146C60.1686 51.7067 59.2705 50.809 58.163 50.809H52.1461V44.1237H58.163C59.2707 44.1237 60.1686 43.2261 60.1686 42.1181C60.1686 41.0101 59.2705 40.1125 58.163 40.1125H52.1461V39.4441C52.1461 38.3359 51.248 37.4383 50.1403 37.4383ZM85.573 114.989H52.1461V66.9614V65.5169H85.573V114.989ZM104.292 114.989H89.5841V63.5111V60.8369C89.5841 59.7289 88.686 58.8313 87.5785 58.8313C86.4711 58.8313 85.573 59.7289 85.573 60.8369V61.5053H81.5618V60.8369C81.5618 59.7289 80.6638 58.8313 79.5563 58.8313C78.4488 58.8313 77.5507 59.7289 77.5507 60.8369V61.5053H70.8653V20.7248V12.0336H104.292V114.989H104.292Z" fill="#467CCE"/>
<path d="M60.8369 110.978C61.9446 110.978 62.8425 110.08 62.8425 108.972V71.5344C62.8425 70.4264 61.9444 69.5288 60.8369 69.5288C59.7294 69.5288 58.8313 70.4264 58.8313 71.5344V108.973C58.8313 110.08 59.7292 110.978 60.8369 110.978Z" fill="#467CCE"/>
<path d="M68.8592 110.978C69.9669 110.978 70.8647 110.08 70.8647 108.972V71.5344C70.8647 70.4264 69.9667 69.5288 68.8592 69.5288C67.7517 69.5288 66.8536 70.4264 66.8536 71.5344V108.973C66.8534 110.08 67.7515 110.978 68.8592 110.978Z" fill="#467CCE"/>
<path d="M76.8819 110.978C77.9896 110.978 78.8874 110.08 78.8874 108.972V71.5344C78.8874 70.4264 77.9893 69.5288 76.8819 69.5288C75.7744 69.5288 74.8763 70.4264 74.8763 71.5344V108.973C74.8763 110.08 75.7744 110.978 76.8819 110.978Z" fill="#467CCE"/>
<path d="M79.556 25.4043C80.6637 25.4043 81.5615 24.5067 81.5615 23.3987V20.7247C81.5615 19.6167 80.6634 18.7191 79.556 18.7191C78.4485 18.7191 77.5504 19.6167 77.5504 20.7247V23.3989C77.5504 24.5067 78.4482 25.4043 79.556 25.4043Z" fill="#467CCE"/>
<path d="M87.5782 25.4043C88.6859 25.4043 89.5838 24.5067 89.5838 23.3987V20.7247C89.5838 19.6167 88.6857 18.7191 87.5782 18.7191C86.4707 18.7191 85.5727 19.6167 85.5727 20.7247V23.3989C85.5727 24.5067 86.4705 25.4043 87.5782 25.4043Z" fill="#467CCE"/>
<path d="M95.6012 25.4043C96.7089 25.4043 97.6068 24.5067 97.6068 23.3987V20.7247C97.6068 19.6167 96.7087 18.7191 95.6012 18.7191C94.4937 18.7191 93.5956 19.6167 93.5956 20.7247V23.3989C93.5956 24.5067 94.4935 25.4043 95.6012 25.4043Z" fill="#467CCE"/>
<path d="M79.556 38.775C80.6637 38.775 81.5615 37.8774 81.5615 36.7694V34.0952C81.5615 32.9872 80.6634 32.0896 79.556 32.0896C78.4485 32.0896 77.5504 32.9872 77.5504 34.0952V36.7694C77.5504 37.8774 78.4482 38.775 79.556 38.775Z" fill="#467CCE"/>
<path d="M87.5782 38.775C88.6859 38.775 89.5838 37.8774 89.5838 36.7694V34.0952C89.5838 32.9872 88.6857 32.0896 87.5782 32.0896C86.4707 32.0896 85.5727 32.9872 85.5727 34.0952V36.7694C85.5727 37.8774 86.4705 38.775 87.5782 38.775Z" fill="#467CCE"/>
<path d="M95.6012 38.775C96.7089 38.775 97.6068 37.8774 97.6068 36.7694V34.0952C97.6068 32.9872 96.7087 32.0896 95.6012 32.0896C94.4937 32.0896 93.5956 32.9872 93.5956 34.0952V36.7694C93.5956 37.8774 94.4935 38.775 95.6012 38.775Z" fill="#467CCE"/>
<path d="M79.556 52.1461C80.6637 52.1461 81.5615 51.2485 81.5615 50.1405V47.4663C81.5615 46.3583 80.6634 45.4607 79.556 45.4607C78.4485 45.4607 77.5504 46.3583 77.5504 47.4663V50.1405C77.5504 51.2482 78.4482 52.1461 79.556 52.1461Z" fill="#467CCE"/>
<path d="M87.5782 52.1461C88.6859 52.1461 89.5838 51.2485 89.5838 50.1405V47.4663C89.5838 46.3583 88.6857 45.4607 87.5782 45.4607C86.4707 45.4607 85.5727 46.3583 85.5727 47.4663V50.1405C85.5727 51.2482 86.4705 52.1461 87.5782 52.1461Z" fill="#467CCE"/>
<path d="M95.6012 52.1461C96.7089 52.1461 97.6068 51.2485 97.6068 50.1405V47.4663C97.6068 46.3583 96.7087 45.4607 95.6012 45.4607C94.4937 45.4607 93.5956 46.3583 93.5956 47.4663V50.1405C93.5956 51.2482 94.4935 52.1461 95.6012 52.1461Z" fill="#467CCE"/>
<path d="M23.3987 57.4945C24.5065 57.4945 25.4043 56.5968 25.4043 55.4889V52.8146C25.4043 51.7067 24.5062 50.8091 23.3987 50.8091C22.2912 50.8091 21.3932 51.7067 21.3932 52.8146V55.4889C21.3932 56.5966 22.2912 57.4945 23.3987 57.4945Z" fill="#467CCE"/>
<path d="M31.421 57.4945C32.5287 57.4945 33.4266 56.5968 33.4266 55.4889V52.8146C33.4266 51.7067 32.5285 50.8091 31.421 50.8091C30.3135 50.8091 29.4154 51.7067 29.4154 52.8146V55.4889C29.4154 56.5966 30.3133 57.4945 31.421 57.4945Z" fill="#467CCE"/>
<path d="M39.4438 57.4945C40.5515 57.4945 41.4493 56.5968 41.4493 55.4889V52.8146C41.4493 51.7067 40.5512 50.8091 39.4438 50.8091C38.3363 50.8091 37.4382 51.7067 37.4382 52.8146V55.4889C37.4382 56.5966 38.336 57.4945 39.4438 57.4945Z" fill="#467CCE"/>
<path d="M23.3987 70.8653C24.5065 70.8653 25.4043 69.9677 25.4043 68.8597V66.1855C25.4043 65.0775 24.5062 64.1799 23.3987 64.1799C22.2912 64.1799 21.3932 65.0775 21.3932 66.1855V68.8597C21.3932 69.9675 22.2912 70.8653 23.3987 70.8653Z" fill="#467CCE"/>
<path d="M31.421 70.8653C32.5287 70.8653 33.4266 69.9677 33.4266 68.8597V66.1855C33.4266 65.0775 32.5285 64.1799 31.421 64.1799C30.3135 64.1799 29.4154 65.0775 29.4154 66.1855V68.8597C29.4154 69.9675 30.3133 70.8653 31.421 70.8653Z" fill="#467CCE"/>
<path d="M39.4438 70.8653C40.5515 70.8653 41.4493 69.9677 41.4493 68.8597V66.1855C41.4493 65.0775 40.5512 64.1799 39.4438 64.1799C38.3363 64.1799 37.4382 65.0775 37.4382 66.1855V68.8597C37.4382 69.9675 38.336 70.8653 39.4438 70.8653Z" fill="#467CCE"/>
<path d="M23.3987 84.2362C24.5065 84.2362 25.4043 83.3386 25.4043 82.2306V79.5563C25.4043 78.4484 24.5062 77.5508 23.3987 77.5508C22.2912 77.5508 21.3932 78.4484 21.3932 79.5563V82.2306C21.3932 83.3386 22.2912 84.2362 23.3987 84.2362Z" fill="#467CCE"/>
<path d="M31.421 84.2362C32.5287 84.2362 33.4266 83.3386 33.4266 82.2306V79.5563C33.4266 78.4484 32.5285 77.5508 31.421 77.5508C30.3135 77.5508 29.4154 78.4484 29.4154 79.5563V82.2306C29.4154 83.3386 30.3133 84.2362 31.421 84.2362Z" fill="#467CCE"/>
<path d="M39.4438 84.2362C40.5515 84.2362 41.4493 83.3386 41.4493 82.2306V79.5563C41.4493 78.4484 40.5512 77.5508 39.4438 77.5508C38.3363 77.5508 37.4382 78.4484 37.4382 79.5563V82.2306C37.4382 83.3386 38.336 84.2362 39.4438 84.2362Z" fill="#467CCE"/>
<path d="M23.3987 97.6068C24.5065 97.6068 25.4043 96.7092 25.4043 95.6012V92.927C25.4043 91.819 24.5062 90.9214 23.3987 90.9214C22.2912 90.9214 21.3932 91.819 21.3932 92.927V95.6012C21.3932 96.7092 22.2912 97.6068 23.3987 97.6068Z" fill="#467CCE"/>
<path d="M31.421 97.6068C32.5287 97.6068 33.4266 96.7092 33.4266 95.6012V92.927C33.4266 91.819 32.5285 90.9214 31.421 90.9214C30.3135 90.9214 29.4154 91.819 29.4154 92.927V95.6012C29.4154 96.7092 30.3133 97.6068 31.421 97.6068Z" fill="#467CCE"/>
<path d="M39.4438 97.6068C40.5515 97.6068 41.4493 96.7092 41.4493 95.6012V92.927C41.4493 91.819 40.5512 90.9214 39.4438 90.9214C38.3363 90.9214 37.4382 91.819 37.4382 92.927V95.6012C37.4382 96.7092 38.336 97.6068 39.4438 97.6068Z" fill="#467CCE"/>
<path d="M95.6012 65.5172C96.7089 65.5172 97.6068 64.6196 97.6068 63.5116V60.8374C97.6068 59.7294 96.7087 58.8318 95.6012 58.8318C94.4937 58.8318 93.5956 59.7294 93.5956 60.8374V63.5116C93.5956 64.6193 94.4935 65.5172 95.6012 65.5172Z" fill="#467CCE"/>
<path d="M95.6012 78.8878C96.7089 78.8878 97.6068 77.9902 97.6068 76.8822V74.208C97.6068 73.1 96.7087 72.2024 95.6012 72.2024C94.4937 72.2024 93.5956 73.1 93.5956 74.208V76.8822C93.5956 77.9899 94.4935 78.8878 95.6012 78.8878Z" fill="#467CCE"/>
<path d="M95.6012 92.2586C96.7089 92.2586 97.6068 91.361 97.6068 90.2531V87.5788C97.6068 86.4709 96.7087 85.5732 95.6012 85.5732C94.4937 85.5732 93.5956 86.4709 93.5956 87.5788V90.2531C93.5956 91.3608 94.4935 92.2586 95.6012 92.2586Z" fill="#467CCE"/>
<path d="M95.6012 105.629C96.7089 105.629 97.6068 104.732 97.6068 103.624V100.949C97.6068 99.8415 96.7087 98.9438 95.6012 98.9438C94.4937 98.9438 93.5956 99.8415 93.5956 100.949V103.624C93.5956 104.731 94.4935 105.629 95.6012 105.629Z" fill="#467CCE"/>
<path d="M60.1684 31.4213C60.1684 30.3134 59.2703 29.4158 58.1628 29.4158H42.1178C41.01 29.4158 40.1122 30.3134 40.1122 31.4213C40.1122 32.5293 41.0103 33.4269 42.1178 33.4269H58.1628C59.2705 33.4269 60.1684 32.5293 60.1684 31.4213Z" fill="#467CCE"/>
</svg>
